# xmcd CD database file
#
# Track frame offsets:
#	183
#	30783
#	56358
#	85983
#	111633
#	145158
#	176133
#	205008
#	234933
#
# Disc length: 3443 seconds
#
# Revision: 0
# Processed by: cddbd v1.5.1PL0 Copyright (c) Steve Scherf et al.
# Submitted via: CDex 1.51
#
DISCID=700d7109
DTITLE=Lothar Schmitz Energy Band - makin' all stops
DYEAR=1989
DGENRE=Jazz
TTITLE0=new stratogy
TTITLE1=makin' all stops
TTITLE2=sign "o" the times
TTITLE3=delayed love song
TTITLE4=small and tall
TTITLE5=babaganough falafel combo
TTITLE6=6 million $ man
TTITLE7=tribute to john scofield
TTITLE8=it swings
EXTD=YEAR: 1989
EXTT0=
EXTT1=
EXTT2=
EXTT3=
EXTT4=
EXTT5=
EXTT6=
EXTT7=
EXTT8=
PLAYORDER=
